<?xml version="1.0" standalone="no"?>
<svg xmlns="http://www.w3.org/2000/svg" viewBox="0 0 160.294 29" width="160.294" height="29"><g fill="#ffb39f" color="#ffb39f" transform="translate(0, 0) scale(0.5576924)"><svg width="46.0" height="52.0" x="0.0" y="0.0" viewBox="0 0 46 52"><path fill="currentColor" fill-rule="evenodd" d="M8.335 41.022a15.213 15.213 0 0 1 14.21-9.688 15.21 15.21 0 0 1 14.21 9.688l-14.21 8.163-14.21-8.163zm14.21-36.141l19.208 33.27-2.858 1.641a17.643 17.643 0 0 0-16.35-10.898A17.648 17.648 0 0 0 6.194 39.792l-2.857-1.64L22.545 4.88zm0-4.881L0 39.048 22.545 52 45.09 39.048 22.545 0z"></path></svg></g><line x1="37.654" y1="1" x2="37.654" y2="28" stroke="#9a1212" stroke-linecap="round"></line><path fill="#9a1212" fill-rule="nonzero" d="M0 1.73L0 1.20L12.48 1.20L12.72 6.19L12.29 6.19Q11.40 3.60 10.24 2.66Q9.07 1.73 6.77 1.73L6.77 1.73L6.10 1.73L6.10 9.53L7.18 9.53Q8.33 9.53 9.10 8.69Q9.86 7.85 10.15 6.38L10.15 6.38L10.51 6.38L10.51 13.49L10.10 13.49Q9.72 11.69 9.04 10.92Q8.35 10.15 7.18 10.15L7.18 10.15L6.10 10.15L6.10 17.47L9.07 17.47L9.07 18L0 18L0 17.47L1.42 17.47L1.42 1.73L0 1.73ZM18.38 12.36L18.38 12.36L19.08 12.36L19.08 10.51Q19.08 8.23 18.83 7.45Q18.58 6.67 17.86 6.67L17.86 6.67Q17.42 6.67 17.08 6.90Q16.73 7.13 16.73 7.52Q16.73 7.92 16.87 8.33L16.87 8.33L17.47 8.33Q17.66 8.83 17.66 9.54Q17.66 10.25 17.06 10.76Q16.46 11.28 15.55 11.28L15.55 11.28Q13.49 11.28 13.49 9.29L13.49 9.29Q13.49 6.34 18.50 6.34L18.50 6.34Q21.36 6.34 22.45 7.31Q23.54 8.28 23.54 10.87L23.54 10.87L23.54 15.74Q23.54 16.99 24.24 16.99L24.24 16.99Q25.06 16.99 25.20 14.52L25.20 14.52L25.56 14.54Q25.46 16.66 24.77 17.45Q24.07 18.24 22.49 18.24L22.49 18.24Q19.61 18.24 19.18 16.46L19.18 16.46Q18.86 17.38 18.24 17.81Q17.62 18.24 16.42 18.24L16.42 18.24Q12.86 18.24 12.86 15.34L12.86 15.34Q12.86 13.63 14.22 13.00Q15.58 12.36 18.38 12.36ZM17.42 15.31Q17.42 16.56 17.56 16.92Q17.69 17.28 18.06 17.28Q18.43 17.28 18.76 16.67Q19.08 16.06 19.08 14.98L19.08 14.98L19.08 12.74L18.91 12.74Q17.42 12.74 17.42 14.93L17.42 14.93L17.42 15.31ZM40.32 18L33.65 18L33.65 17.57L34.75 17.57L32.04 12L31.58 12.12L31.58 17.57L32.69 17.57L32.69 18L25.80 18L25.80 17.57L27.12 17.57L27.12 0.43L25.70 0.43L25.70 0L31.58 0L31.58 11.64L31.97 11.50L37.37 7.01L35.11 7.01L35.11 6.58L39.84 6.58L39.84 7.01L38.16 7.01L35.30 9.43L39.46 17.57L40.32 17.57L40.32 18ZM46.39 18.24Q43.30 18.24 41.75 16.64Q40.20 15.05 40.20 12.20Q40.20 9.36 41.94 7.85Q43.68 6.34 46.37 6.34L46.37 6.34Q51.82 6.34 51.60 11.81L51.60 11.81L44.83 11.81L44.83 12.74Q44.83 15.10 45.43 16.30Q46.03 17.50 47.52 17.50L47.52 17.50Q50.30 17.50 51.17 14.52L51.17 14.52L51.60 14.59Q51.14 16.32 49.96 17.28Q48.77 18.24 46.39 18.24L46.39 18.24ZM44.86 10.15L44.86 11.33L47.33 11.33L47.33 10.15Q47.33 8.21 47.10 7.50Q46.87 6.79 46.19 6.79Q45.50 6.79 45.18 7.55Q44.86 8.30 44.86 10.15L44.86 10.15ZM60.02 17.74L60.02 17.74Q61.22 17.74 62.15 17.09Q63.07 16.44 63.07 15.13Q63.07 13.82 62.08 13.13Q61.08 12.43 59.24 11.92Q57.41 11.40 56.58 11.02Q55.75 10.63 55.01 10.01L55.01 10.01Q53.52 8.76 53.52 6.14L53.52 6.14Q53.52 4.01 55.04 2.47Q56.57 0.94 59.21 0.94L59.21 0.94Q60.48 0.94 61.86 1.31Q63.24 1.68 63.58 1.68Q63.91 1.68 64.18 1.20L64.18 1.20L64.44 1.20L64.61 6.05L64.22 6.05Q63.07 3.96 61.81 2.70Q60.55 1.44 59.08 1.44Q57.60 1.44 56.78 2.12Q55.97 2.81 55.97 3.95Q55.97 5.09 56.94 5.70Q57.91 6.31 59.33 6.70Q60.74 7.08 61.19 7.22Q61.63 7.37 62.29 7.62Q62.95 7.87 63.37 8.15Q63.79 8.42 64.26 8.84Q64.73 9.26 64.99 9.77L64.99 9.77Q65.64 10.92 65.64 12.50L65.64 12.50Q65.64 15.10 64.02 16.67Q62.40 18.24 59.76 18.24L59.76 18.24Q58.39 18.24 56.63 17.88Q54.86 17.52 54.67 17.52L54.67 17.52Q54.34 17.52 54.02 18.24L54.02 18.24L53.69 18.24L53.45 12.53L53.86 12.53Q54.91 14.62 56.56 16.18Q58.20 17.74 60.02 17.74ZM68.06 14.57L68.06 14.57L68.06 7.01L66.74 7.01L66.74 6.58L68.06 6.58L68.06 3.48L72.53 2.38L72.53 6.58L75.65 6.58L75.65 7.01L72.53 7.01L72.53 15.10Q72.53 16.22 72.76 16.75Q72.98 17.28 73.70 17.28Q74.42 17.28 74.96 16.56Q75.50 15.84 75.67 14.59L75.67 14.59L76.08 14.64Q75.89 16.30 75.02 17.27Q74.16 18.24 72.17 18.24Q70.18 18.24 69.12 17.45Q68.06 16.66 68.06 14.57ZM84.07 13.27L84.07 13.27L84.07 11.23Q84.07 8.90 83.82 7.84Q83.57 6.77 82.66 6.77L82.66 6.77Q82.13 6.77 81.80 7.07Q81.48 7.37 81.34 8.06L81.34 8.06Q81.12 9.14 81.12 11.35L81.12 11.35L81.12 13.22Q81.12 15.84 81.28 16.37Q81.43 16.90 81.60 17.23L81.60 17.23Q81.86 17.81 82.63 17.81L82.63 17.81Q83.57 17.81 83.86 16.73L83.86 16.73Q84.07 15.96 84.07 13.27ZM82.58 18.24Q79.58 18.24 78.05 16.70Q76.51 15.17 76.51 12.30Q76.51 9.43 78.16 7.88Q79.80 6.34 82.78 6.34Q85.75 6.34 87.22 7.76Q88.68 9.19 88.68 12.12L88.68 12.12Q88.68 18.24 82.58 18.24L82.58 18.24ZM97.37 7.25L97.37 7.25Q96.48 7.25 95.81 8.40Q95.14 9.55 95.14 11.14L95.14 11.14L95.14 17.57L96.84 17.57L96.84 18L89.35 18L89.35 17.57L90.67 17.57L90.67 7.01L89.35 7.01L89.35 6.58L95.14 6.58L95.14 8.88Q95.45 7.66 96.34 7.00Q97.22 6.34 98.35 6.34Q99.48 6.34 100.19 6.97Q100.90 7.61 100.90 8.77Q100.90 9.94 100.37 10.56Q99.84 11.18 98.75 11.18Q97.66 11.18 97.14 10.46Q96.62 9.74 97.01 8.47L97.01 8.47L97.87 8.47Q98.47 7.25 97.37 7.25ZM107.42 18.24Q104.33 18.24 102.78 16.64Q101.23 15.05 101.23 12.20Q101.23 9.36 102.97 7.85Q104.71 6.34 107.40 6.34L107.40 6.34Q112.85 6.34 112.63 11.81L112.63 11.81L105.86 11.81L105.86 12.74Q105.86 15.10 106.46 16.30Q107.06 17.50 108.55 17.50L108.55 17.50Q111.34 17.50 112.20 14.52L112.20 14.52L112.63 14.59Q112.18 16.32 110.99 17.28Q109.80 18.24 107.42 18.24L107.42 18.24ZM105.89 10.15L105.89 11.33L108.36 11.33L108.36 10.15Q108.36 8.21 108.13 7.50Q107.90 6.79 107.22 6.79Q106.54 6.79 106.21 7.55Q105.89 8.30 105.89 10.15L105.89 10.15Z" transform="translate(47.654, 5.5)"></path></svg>